<svg width="104" height="103" viewBox="0 0 104 103" fill="none" xmlns="http://www.w3.org/2000/svg">
<rect x="2.37421" y="51.67" width="70.19" height="70.19" rx="2" transform="rotate(-45 2.37421 51.67)" stroke="black" stroke-opacity="0.125" stroke-width="2"/>
<path d="M71.4469 36.7713C71.9953 36.7713 72.5438 37.2512 72.5438 37.9367V61.6566C72.5438 62.5479 71.9268 63.3705 71.1041 63.7133L60.7523 67.2781C60.2725 67.4152 59.8611 67.4838 59.3812 67.4838C58.9014 67.4838 58.4215 67.4152 58.0102 67.2781L46.2187 63.0963L34.4959 67.4152C34.3588 67.4838 34.2217 67.4838 34.0845 67.4838C33.5361 67.4838 33.0562 67.0725 33.0562 66.3869V42.667C33.0562 41.7758 33.6047 40.9531 34.4273 40.6103L44.7791 37.0455C45.259 36.9084 45.7389 36.7713 46.1502 36.7713C46.6301 36.8398 47.1099 36.9084 47.5898 37.0455L59.3812 41.1588L71.0356 36.9084C71.1727 36.8398 71.3098 36.7713 71.4469 36.7713ZM48.4125 40.816V60.4227L57.1875 63.5076V43.901L48.4125 40.816ZM36.3469 63.302L45.0533 60.0113H45.1219V40.4047L36.3469 43.4896V63.302ZM69.2531 60.834V41.0217L60.4781 44.3123V63.919L69.2531 60.834Z" fill="#00F0FF"/>
</svg>
