<svg width="103" height="103" viewBox="0 0 103 103" fill="none" xmlns="http://www.w3.org/2000/svg">
<rect x="2.0242" y="51.67" width="70.19" height="70.19" rx="2" transform="rotate(-45 2.0242 51.67)" stroke="black" stroke-opacity="0.125" stroke-width="2"/>
<path d="M63.4337 56.515C66.9986 56.515 70.015 59.5314 70.015 63.0963C70.015 66.7297 66.9986 69.6775 63.4337 69.6775H44.3755C45.2667 68.5807 46.5007 67.0039 47.5976 65.29H63.4337C64.5992 65.29 65.6275 64.3303 65.6275 63.0963C65.6275 61.9309 64.5992 60.9025 63.4337 60.9025H56.8525C53.2191 60.9025 50.2712 57.9547 50.2712 54.3213C50.2712 50.7564 53.2191 47.74 56.8525 47.74H59.9375C58.3607 45.5463 56.8525 42.9412 56.8525 41.1588C56.8525 37.5254 59.8003 34.5775 63.4337 34.5775C67.0671 34.5775 70.015 37.5254 70.015 41.1588C70.015 44.7922 63.4337 52.1275 63.4337 52.1275H56.8525C55.6185 52.1275 54.6587 53.1559 54.6587 54.3213C54.6587 55.5553 55.6185 56.515 56.8525 56.515H63.4337ZM63.4337 38.965C62.1998 38.965 61.24 39.9933 61.24 41.1588C61.24 42.3928 62.1998 43.3525 63.4337 43.3525C64.5992 43.3525 65.6275 42.3928 65.6275 41.1588C65.6275 39.9933 64.5992 38.965 63.4337 38.965ZM41.4962 52.1275C45.1296 52.1275 48.0775 55.0754 48.0775 58.7088C48.0775 62.3422 41.4962 69.6775 41.4962 69.6775C41.4962 69.6775 34.915 62.3422 34.915 58.7088C34.915 55.0754 37.8628 52.1275 41.4962 52.1275ZM41.4962 60.9025C42.6617 60.9025 43.69 59.9428 43.69 58.7088C43.69 57.5434 42.6617 56.515 41.4962 56.515C40.2622 56.515 39.3025 57.5434 39.3025 58.7088C39.3025 59.9428 40.2622 60.9025 41.4962 60.9025Z" fill="#76DDFF"/>
</svg>
